<svg width="401" height="84" viewbox="0 0 401 84" fill="none" xmlns="http://www.w3.org/2000/svg">
					<path d="M0.112305 71L9.65066 13.5454H50.0484L47.9163 26.1136H23.1166L21.5455 35.9886H43.8765L41.7444 48.5568H19.4134L15.7103 71H0.112305Z" fill="url(#paint0_linear_1_263)"/>
					<path d="M53.997 71H37.1646L65.6674 13.5454H86.9885L96.4146 71H79.5822L73.9714 29.3679H73.5226L53.997 71ZM54.6703 48.3324H86.3152L84.2953 60.0028H52.6504L54.6703 48.3324Z" fill="url(#paint1_linear_1_263)"/>
					<path d="M101.948 71L111.487 13.5454H136.286C140.551 13.5454 144.151 14.3216 147.087 15.8739C150.023 17.4262 152.137 19.6612 153.427 22.5788C154.718 25.4964 155.026 28.9938 154.353 33.071C153.68 37.1856 152.193 40.6549 149.893 43.479C147.611 46.2844 144.703 48.4165 141.168 49.8753C137.652 51.3154 133.705 52.0355 129.329 52.0355H114.516L116.536 39.9162H128.207C130.04 39.9162 131.648 39.6918 133.032 39.2429C134.416 38.7753 135.538 38.0459 136.399 37.0547C137.259 36.0447 137.82 34.7168 138.082 33.071C138.344 31.4252 138.213 30.0879 137.689 29.0593C137.165 28.0119 136.296 27.2451 135.08 26.7589C133.864 26.2539 132.359 26.0014 130.563 26.0014H125.065L117.546 71H101.948ZM139.989 44.6292L149.977 71H133.032L123.381 44.6292H139.989Z" fill="url(#paint2_linear_1_263)"/>
					<path d="M155.489 71L165.028 13.5454H180.626L176.81 36.7741H177.596L198.692 13.5454H216.871L193.306 39.1307L207.782 71H189.154L179.952 49.4545L173.556 56.2997L171.087 71H155.489Z" fill="url(#paint3_linear_1_263)"/>
					<path d="M211.962 71L221.5 13.5454H237.098L229.692 58.4318H252.921L250.789 71H211.962Z" fill="url(#paint4_linear_1_263)"/>
					<path d="M257.094 71L266.632 13.5454H308.04L305.908 26.1136H280.098L278.527 35.9886H302.205L300.072 48.5568H276.395L274.824 58.4318H300.521L298.389 71H257.094Z" fill="url(#paint5_linear_1_263)"/>
					<path d="M383.5 17.5V66.5H334.5V17.5H383.5ZM383.5 10.5H334.5C330.65 10.5 327.5 13.65 327.5 17.5V66.5C327.5 70.35 330.65 73.5 334.5 73.5H383.5C387.35 73.5 390.5 70.35 390.5 66.5V17.5C390.5 13.65 387.35 10.5 383.5 10.5ZM343.25 21C340.45 21 338 23.45 338 26.25C338 29.05 340.45 31.5 343.25 31.5C346.05 31.5 348.5 29.05 348.5 26.25C348.5 23.45 346.05 21 343.25 21ZM374.75 52.5C371.95 52.5 369.5 54.95 369.5 57.75C369.5 60.55 371.95 63 374.75 63C377.55 63 380 60.55 380 57.75C380 54.95 377.55 52.5 374.75 52.5ZM374.75 21C371.95 21 369.5 23.45 369.5 26.25C369.5 29.05 371.95 31.5 374.75 31.5C377.55 31.5 380 29.05 380 26.25C380 23.45 377.55 21 374.75 21ZM359 36.75C356.2 36.75 353.75 39.2 353.75 42C353.75 44.8 356.2 47.25 359 47.25C361.8 47.25 364.25 44.8 364.25 42C364.25 39.2 361.8 36.75 359 36.75ZM343.25 52.5C340.45 52.5 338 54.95 338 57.75C338 60.55 340.45 63 343.25 63C346.05 63 348.5 60.55 348.5 57.75C348.5 54.95 346.05 52.5 343.25 52.5Z" fill="url(#paint6_linear_1_263)"/>
					<defs>
						<linearGradient id="paint0_linear_1_263" x1="154.076" y1="13.5454" x2="154.076" y2="71" gradientunits="userSpaceOnUse">
							<stop stop-color="#7137D0"/>
							<stop offset="1" stop-color="#1176A2" stop-opacity="0.99"/>
						</linearGradient>
						<linearGradient id="paint1_linear_1_263" x1="154.076" y1="13.5454" x2="154.076" y2="71" gradientunits="userSpaceOnUse">
							<stop stop-color="#7137D0"/>
							<stop offset="1" stop-color="#1176A2" stop-opacity="0.99"/>
						</linearGradient>
						<linearGradient id="paint2_linear_1_263" x1="154.076" y1="13.5454" x2="154.076" y2="71" gradientunits="userSpaceOnUse">
							<stop stop-color="#7137D0"/>
							<stop offset="1" stop-color="#1176A2" stop-opacity="0.99"/>
						</linearGradient>
						<linearGradient id="paint3_linear_1_263" x1="154.076" y1="13.5454" x2="154.076" y2="71" gradientunits="userSpaceOnUse">
							<stop stop-color="#7137D0"/>
							<stop offset="1" stop-color="#1176A2" stop-opacity="0.99"/>
						</linearGradient>
						<linearGradient id="paint4_linear_1_263" x1="154.076" y1="13.5454" x2="154.076" y2="71" gradientunits="userSpaceOnUse">
							<stop stop-color="#7137D0"/>
							<stop offset="1" stop-color="#1176A2" stop-opacity="0.99"/>
						</linearGradient>
						<linearGradient id="paint5_linear_1_263" x1="154.076" y1="13.5454" x2="154.076" y2="71" gradientunits="userSpaceOnUse">
							<stop stop-color="#7137D0"/>
							<stop offset="1" stop-color="#1176A2" stop-opacity="0.99"/>
						</linearGradient>
						<linearGradient id="paint6_linear_1_263" x1="359" y1="10.5" x2="359" y2="73.5" gradientunits="userSpaceOnUse">
							<stop stop-color="#7137D0"/>
							<stop offset="1" stop-color="#1176A2" stop-opacity="0.99"/>
						</linearGradient>
					</defs>
				</svg>